<svg 
 xmlns="http://www.w3.org/2000/svg"
 xmlns:xlink="http://www.w3.org/1999/xlink"
 width="8px" height="14px">
<path fill-rule="evenodd"  fill="rgb(255, 255, 255)"
 d="M7.728,1.622 L2.351,7.000 L7.728,12.377 C8.101,12.750 8.101,13.355 7.728,13.728 C7.355,14.101 6.750,14.101 6.377,13.728 L0.584,7.935 C0.471,7.888 0.364,7.820 0.272,7.728 C0.072,7.528 -0.012,7.263 0.002,7.001 C-0.013,6.739 0.071,6.472 0.272,6.272 C0.364,6.179 0.472,6.110 0.586,6.063 L6.378,0.272 C6.751,-0.102 7.355,-0.102 7.728,0.272 C8.101,0.644 8.101,1.250 7.728,1.622 Z"/>
</svg>