<svg 
 xmlns="http://www.w3.org/2000/svg"
 xmlns:xlink="http://www.w3.org/1999/xlink"
 width="10px" height="10px">
<path fill-rule="evenodd"  fill="rgb(219, 117, 96)"
 d="M9.728,1.622 L6.351,5.000 L9.728,8.377 C10.101,8.750 10.101,9.354 9.728,9.728 C9.355,10.100 8.750,10.100 8.377,9.728 L5.000,6.351 L1.623,9.728 C1.250,10.100 0.645,10.100 0.272,9.728 C-0.101,9.354 -0.101,8.750 0.272,8.377 L3.649,5.000 L0.272,1.622 C-0.102,1.249 -0.102,0.645 0.272,0.271 C0.645,-0.102 1.249,-0.102 1.622,0.271 L5.000,3.649 L8.377,0.271 C8.750,-0.102 9.355,-0.102 9.728,0.271 C10.101,0.645 10.101,1.249 9.728,1.622 Z"/>
</svg>