<svg 
 xmlns="http://www.w3.org/2000/svg"
 xmlns:xlink="http://www.w3.org/1999/xlink"
 width="6px" height="10px">
<path fill-rule="evenodd"  fill="rgb(255, 255, 255)"
 d="M5.728,5.727 C5.636,5.820 5.528,5.889 5.414,5.936 L1.622,9.727 C1.249,10.100 0.645,10.100 0.272,9.727 C-0.101,9.354 -0.101,8.749 0.272,8.377 L3.649,4.999 L0.272,1.622 C-0.101,1.249 -0.101,0.644 0.272,0.271 C0.645,-0.102 1.250,-0.102 1.623,0.271 L5.415,4.063 C5.529,4.110 5.635,4.178 5.728,4.271 C5.928,4.471 6.012,4.736 5.998,4.998 C6.013,5.260 5.929,5.527 5.728,5.727 Z"/>
</svg>